<?xml version="1.0" encoding="UTF-8" standalone="no"?>
<!-- Created with Inkscape (http://www.inkscape.org/) -->

<svg
   width="27.257179mm"
   height="27.2416mm"
   viewBox="0 0 27.257179 27.2416"
   version="1.1"
   id="svg1"
   inkscape:version="1.4 (e7c3feb1, 2024-10-09)"
   sodipodi:docname="icon.svg"
   inkscape:export-filename="icon.png"
   inkscape:export-xdpi="96"
   inkscape:export-ydpi="96"
   xmlns:inkscape="http://www.inkscape.org/namespaces/inkscape"
   xmlns:sodipodi="http://sodipodi.sourceforge.net/DTD/sodipodi-0.dtd"
   xmlns="http://www.w3.org/2000/svg"
   xmlns:svg="http://www.w3.org/2000/svg">
  <sodipodi:namedview
     id="namedview1"
     pagecolor="#ffffff"
     bordercolor="#000000"
     borderopacity="0.25"
     inkscape:showpageshadow="2"
     inkscape:pageopacity="0.0"
     inkscape:pagecheckerboard="0"
     inkscape:deskcolor="#d1d1d1"
     inkscape:document-units="mm"
     inkscape:zoom="2.096401"
     inkscape:cx="47.462294"
     inkscape:cy="47.700798"
     inkscape:window-width="1424"
     inkscape:window-height="831"
     inkscape:window-x="1095"
     inkscape:window-y="1473"
     inkscape:window-maximized="0"
     inkscape:current-layer="layer1" />
  <defs
     id="defs1" />
  <g
     inkscape:label="Layer 1"
     inkscape:groupmode="layer"
     id="layer1"
     transform="translate(-49.477083,-131.23334)">
    <rect
       style="fill:#313262;stroke:none;stroke-width:0.3;fill-opacity:1"
       id="rect1"
       width="27.257177"
       height="27.2416"
       x="49.477081"
       y="131.23334"
       ry="2.4828299e-07" />
    <path
       id="path100"
       style="display:inline;fill:none;fill-opacity:1;stroke:#ffffff;stroke-width:0.264583;stroke-linecap:round;stroke-dasharray:none;stroke-opacity:1;enable-background:new"
       inkscape:label="spade"
       d="m 62.616055,137.06574 c -0.284602,0.72109 -0.62453,1.43967 -1.181892,1.993 -0.776108,0.84891 -1.866908,1.31394 -2.959828,1.59984 -1.321016,0.36639 -2.713079,0.61361 -3.880516,1.37573 -1.796745,1.11237 -3.139393,3.02418 -3.354687,5.15007 -0.177431,1.50424 0.223311,3.08405 1.181436,4.26875 0.846135,1.06851 2.015399,1.84457 3.254832,2.38559 1.692859,0.66818 3.637551,0.40521 5.235144,-0.40193 0.09299,-0.008 0.289979,-0.23268 0.304183,-0.0951 0.06448,0.57965 0.160115,1.19049 -0.02301,1.75702 -0.197743,0.31833 -0.612746,0.3945 -0.949898,0.48439 -0.31796,0.079 -0.652112,0.0868 -0.972012,0.12698 -0.352653,0.17857 -0.705306,0.35714 -1.05796,0.53571 0.377807,0.16558 0.74849,0.36356 1.130653,0.50932 2.518833,0 5.037666,0 7.556499,0 0.367476,-0.16977 0.734955,-0.33955 1.102431,-0.50932 -0.37152,-0.17898 -0.734755,-0.39016 -1.111343,-0.54945 -0.595876,-0.0412 -1.238075,-0.0956 -1.743682,-0.44328 -0.257522,-0.2299 -0.209087,-0.62411 -0.227649,-0.93696 0.008,-0.33825 0.02805,-0.72058 0.09729,-1.02703 1.563282,0.86212 3.475123,1.21793 5.202173,0.66399 0.830518,-0.28113 1.591172,-0.74317 2.295852,-1.25914 1.178507,-0.87497 2.099446,-2.14621 2.379622,-3.60338 0.380988,-1.87316 -0.16481,-3.8799 -1.364096,-5.35648 -1.009734,-1.27148 -2.440006,-2.19635 -4.012423,-2.60052 -1.377809,-0.41065 -2.874668,-0.60961 -4.063114,-1.48034 -0.73137,-0.53141 -1.311436,-1.26428 -1.652521,-2.10226 -0.245706,-0.56198 -0.460677,-1.13683 -0.692697,-1.70452 -0.164262,0.40642 -0.328524,0.81285 -0.492786,1.21928 z" />
    <path
       style="display:inline;fill:#ffffff;fill-opacity:1;stroke:none;stroke-width:0.0573332;stroke-linecap:round;stroke-opacity:1;enable-background:new"
       d="m 66.898732,156.22588 c 0,0 -1.746021,-0.024 -2.275417,-0.75848 -0.529398,-0.73449 0,-3.03388 0,-3.03388 2.275417,1.51695 4.550833,1.51695 6.067778,0.75847 1.516947,-0.75847 3.792361,-2.27541 3.792361,-5.3093 0,-3.03389 -2.275414,-5.30931 -4.550833,-6.06778 -2.275417,-0.75847 -4.411235,-0.73556 -6.067778,-3.03389 -0.374339,-0.51937 -0.758472,-1.51694 -0.758472,-1.51694 0,0 -0.384135,0.99757 -0.758466,1.51694 -1.656898,2.29883 -3.79236,2.27542 -6.067777,3.03389 -2.275417,0.75847 -4.550833,3.03389 -4.550833,6.06778 0,3.03389 2.275416,4.55083 3.792361,5.3093 1.516944,0.75848 3.792361,0.75848 6.067777,-0.75847 0,0 0.529395,2.29939 0,3.03388 -0.529395,0.7345 -2.275416,0.75848 -2.275416,0.75848 h 3.792354 z"
       id="path95"
       sodipodi:nodetypes="czczzzzczzzzczczc"
       inkscape:export-filename="kierki-spade.png"
       inkscape:export-xdpi="90.099998"
       inkscape:export-ydpi="90.099998"
       inkscape:label="spade" />
    <path
       id="path101"
       style="display:inline;fill:none;fill-opacity:1;stroke:#ffffff;stroke-width:0.264583;stroke-linecap:round;stroke-dasharray:none;stroke-opacity:1;enable-background:new"
       inkscape:label="spade"
       d="m 62.623772,132.80926 c -0.585346,1.42719 -1.140182,2.86745 -1.747916,4.2851 -0.338959,0.73503 -0.95534,1.32422 -1.697686,1.64405 -0.963054,0.42809 -2.016297,0.58028 -3.016474,0.89637 -1.185156,0.34117 -2.319058,0.8833 -3.277572,1.66558 -1.908451,1.51195 -3.196287,3.84528 -3.268223,6.2981 -0.09151,2.13349 0.785506,4.29607 2.379339,5.72593 1.079673,1.0064 2.381249,1.789 3.794297,2.22231 0.25302,0.0284 0.152024,0.0885 -0.03448,0.16405 -0.405596,0.20555 -0.811378,0.41073 -1.21706,0.61611 1.505549,0.65187 2.978741,1.37533 4.489097,2.01579 2.740275,0 5.480549,0 8.220825,0 1.47364,-0.68102 2.947269,-1.36207 4.421296,-2.04225 -0.475483,-0.23635 -0.950818,-0.473 -1.426543,-0.70886 1.215449,-0.30489 2.320321,-0.94784 3.312837,-1.69842 1.46635,-1.11461 2.573483,-2.74166 2.909708,-4.56663 0.476563,-2.452 -0.321186,-5.07485 -1.979368,-6.92516 -1.277098,-1.4485 -3.022817,-2.45912 -4.89977,-2.89788 -1.166184,-0.33634 -2.447504,-0.50279 -3.412865,-1.30194 -0.61998,-0.51453 -0.944677,-1.27402 -1.214862,-2.01174 -0.616447,-1.53321 -1.228039,-3.06518 -1.84124,-4.60145 -0.164446,0.40698 -0.328893,0.81396 -0.493338,1.22094 z" />
  </g>
</svg>
