<?xml version="1.0" encoding="UTF-8" standalone="no"?>
<!-- Created with Inkscape (http://www.inkscape.org/) -->

<svg
   width="594mm"
   height="420mm"
   viewBox="0 0 594 420"
   version="1.1"
   id="svg1"
   inkscape:version="1.4 (e7c3feb1, 2024-10-09)"
   sodipodi:docname="kierki-sans.svg"
   xmlns:inkscape="http://www.inkscape.org/namespaces/inkscape"
   xmlns:sodipodi="http://sodipodi.sourceforge.net/DTD/sodipodi-0.dtd"
   xmlns="http://www.w3.org/2000/svg"
   xmlns:svg="http://www.w3.org/2000/svg">
  <sodipodi:namedview
     id="namedview1"
     pagecolor="#ffffff"
     bordercolor="#000000"
     borderopacity="0.25"
     inkscape:showpageshadow="2"
     inkscape:pageopacity="0.0"
     inkscape:pagecheckerboard="0"
     inkscape:deskcolor="#d1d1d1"
     inkscape:document-units="mm"
     inkscape:zoom="0.18529742"
     inkscape:cx="1214.2641"
     inkscape:cy="858.07995"
     inkscape:window-width="1424"
     inkscape:window-height="831"
     inkscape:window-x="1095"
     inkscape:window-y="1473"
     inkscape:window-maximized="0"
     inkscape:current-layer="layer1" />
  <defs
     id="defs1" />
  <g
     inkscape:label="Layer 1"
     inkscape:groupmode="layer"
     id="layer1">
    <path
       style="display:inline;fill:#313262;fill-opacity:1;stroke-width:0.2;stroke-linecap:round;enable-background:new"
       d="m 111.23542,105 c 0,0 -6.09077,-0.0836 -7.9375,-2.64583 -1.84673,-2.562198 0,-10.583334 0,-10.583334 7.9375,5.291666 15.875,5.291666 21.16667,2.645833 5.29166,-2.645833 13.22916,-7.9375 13.22916,-18.520835 0,-10.583335 -7.9375,-18.520832 -15.875,-21.166666 -7.9375,-2.645834 -15.38804,-2.565914 -21.16667,-10.583334 -1.30583,-1.811749 -2.645829,-5.291667 -2.645829,-5.291667 0,0 -1.34,3.479919 -2.645833,5.291667 -5.779883,8.019163 -13.229169,7.9375 -21.166668,10.583334 -7.9375,2.645834 -15.875,10.583331 -15.875,21.166666 0,10.583335 7.9375,15.875002 13.229167,18.520835 5.291666,2.645833 13.229165,2.645833 21.166667,-2.645833 0,0 1.84673,8.021136 0,10.583334 C 90.867855,104.91637 84.777085,105 84.777085,105 h 13.229166 z"
       id="path2"
       sodipodi:nodetypes="czczzzzczzzzczczc"
       inkscape:export-filename="kierki-spade.png"
       inkscape:export-xdpi="90.099998"
       inkscape:export-ydpi="90.099998"
       inkscape:label="spade" />
    <path
       style="display:inline;fill:#c53262;fill-opacity:1;stroke-width:0.2;stroke-linecap:round;enable-background:new"
       d="m 119.17292,131.45834 c 13.22916,0 18.52083,13.22916 18.52083,21.16667 0,7.9375 -5.32561,15.63928 -15.875,21.16666 -8.67345,4.54448 -15.38804,5.21175 -21.16667,13.22917 -1.30583,1.81175 -2.645829,7.9375 -2.645829,7.9375 0,0 -1.34,-6.12575 -2.645833,-7.9375 -5.779883,-8.01917 -12.486925,-8.68139 -21.166668,-13.22917 -10.54332,-5.5242 -15.875,-13.22916 -15.875,-21.16666 0,-7.93751 5.29167,-21.16667 18.520833,-21.16667 13.229168,0 21.166668,10.58333 21.166668,10.58333 0,0 7.937499,-10.58333 21.166669,-10.58333 z"
       id="path4"
       sodipodi:nodetypes="zzzzczzzzcz"
       inkscape:export-filename="kierki-heart.png"
       inkscape:export-xdpi="90.099998"
       inkscape:export-ydpi="90.099998"
       inkscape:label="heart" />
    <path
       id="path5"
       style="display:inline;fill:#313262;fill-opacity:1;stroke-width:0.2;stroke-linecap:round;enable-background:new"
       d="m 98.006248,210.83333 c -8.131127,0 -18.520832,5.29168 -18.520832,13.22918 0,7.9375 5.685815,13.58396 7.937502,15.875 -2.899576,-1.77878 -7.937502,-5.29167 -15.875001,-5.29167 -7.937497,0 -13.229167,8.39144 -13.229167,15.87499 0,7.48355 5.29167,15.87501 13.229167,15.87501 7.937499,0 14.514639,-2.87204 18.520834,-5.29166 1.953034,2.71387 4.492557,10.66695 2.645828,13.22915 -1.84673,2.5622 -7.9375,2.64583 -7.9375,2.64583 h 13.229169 13.229162 c 0,0 -6.09077,-0.0836 -7.9375,-2.64583 -1.84672,-2.5622 0.68681,-10.48911 2.64584,-13.22915 3.99444,2.40785 10.58333,5.29166 18.52084,5.29166 7.9375,0 13.22916,-8.39146 13.22916,-15.87501 0,-7.48355 -5.29167,-15.87499 -13.22916,-15.87499 -7.9375,0 -12.97543,3.51289 -15.87501,5.29167 2.25169,-2.29104 7.9375,-7.9375 7.9375,-15.875 0,-7.9375 -10.38971,-13.22918 -18.520832,-13.22918 z"
       sodipodi:nodetypes="szczszcscccsczszczs"
       inkscape:export-filename="kierki-club.png"
       inkscape:export-xdpi="90.099998"
       inkscape:export-ydpi="90.099998"
       inkscape:label="club" />
    <path
       id="path6"
       style="display:inline;fill:#c53262;fill-opacity:1;stroke-width:0.2;stroke-linecap:round;enable-background:new"
       d="m 95.360415,364.29167 c 1.305833,1.81175 2.645833,5.29167 2.645833,5.29167 0,0 1.339999,-3.47992 2.645832,-5.29167 5.77863,-8.01742 15.875,-15.875 15.875,-15.875 0,0 7.85758,-4.80469 15.875,-10.58333 1.81176,-1.30582 5.29167,-2.64583 5.29167,-2.64583 0,0 -3.47991,-1.34 -5.29167,-2.64584 -8.01914,-5.77988 -15.875,-10.58333 -15.875,-10.58333 0,0 -10.09637,-5.21174 -15.875,-13.22916 -1.30583,-1.81175 -2.645829,-5.29167 -2.645829,-5.29167 0,0 -1.34,3.47992 -2.645833,5.29167 -5.779883,8.01914 -15.875002,13.22916 -15.875002,13.22916 0,0 -7.855853,4.80345 -15.874996,10.58333 -1.81176,1.30584 -5.29167,2.64584 -5.29167,2.64584 0,0 3.47991,1.34001 5.29167,2.64583 8.017422,5.77864 15.874996,10.58333 15.874996,10.58333 0,0 10.095116,7.85585 15.874999,15.875 z"
       sodipodi:nodetypes="scscscscscscscccs"
       inkscape:export-filename="kierki-diamond.png"
       inkscape:export-xdpi="90.099998"
       inkscape:export-ydpi="90.099998"
       inkscape:label="diamond" />
    <path
       id="path15"
       style="fill:#313262;fill-opacity:1;stroke:none;stroke-width:0.2;stroke-linecap:round;stroke-opacity:1;enable-background:new"
       d="M 185.31875,38.854166 164.15208,105 h 10.58333 l 5.0798,-15.875002 h 21.59041 L 206.48541,105 h 10.58334 L 195.90208,38.854166 Z m 5.29166,16.53646 7.40833,23.151039 h -14.81666 z"
       inkscape:label="A" />
    <path
       style="fill:#313262;fill-opacity:1;stroke:none;stroke-width:0.2;stroke-linecap:round;stroke-opacity:1;enable-background:new"
       d="m 164.15208,131.45834 v 66.14583 h 10.58334 v -29.10416 c 0,0 18.52083,23.8125 21.16666,26.45833 2.64584,2.64583 5.29167,2.64583 5.29167,2.64583 h 10.58334 c 0,0 -2.64584,0 -5.29167,-2.64583 -2.64583,-2.64583 -23.8125,-31.75 -23.8125,-31.75 l 26.45833,-31.75 h -10.58333 l -23.8125,26.45833 v -26.45833 z"
       id="path20"
       sodipodi:nodetypes="cccczcczcccccc"
       inkscape:label="K" />
    <path
       id="path21"
       style="fill:#313262;fill-opacity:1;stroke:none;stroke-width:0.2;stroke-linecap:round;stroke-opacity:1;enable-background:new"
       d="m 190.61041,210.83333 c -14.46496,0 -26.45834,15.87501 -26.45833,34.39583 0,18.52085 12.68192,31.75 26.45833,31.75 4.35577,0 8.60064,-1.32559 12.37134,-3.71967 0.32492,0.41933 0.62397,0.79778 0.85783,1.07384 2.85504,3.37027 5.29166,2.64583 5.29166,2.64583 h 10.58334 c 0,0 -3.88828,-0.93398 -5.29167,-2.64583 -1.10351,-1.34608 -3.67592,-5.37681 -4.75371,-7.08329 4.5116,-5.56462 7.39955,-13.18848 7.39955,-22.02088 -1e-5,-18.52082 -11.99337,-34.39583 -26.45834,-34.39583 z m 0,10.58333 c 9.53969,0 15.87499,10.58335 15.875,23.8125 1e-5,5.41224 -1.18171,9.93743 -3.1812,13.39712 l -2.11047,-2.81379 h -10.58333 c 0,0 3.05792,4.46127 6.30763,9.07955 -1.93015,0.98629 -4.06113,1.50379 -6.30763,1.50379 -8.81944,0 -15.87499,-7.93749 -15.875,-21.16667 0,-13.22915 6.33531,-23.8125 15.875,-23.8125 z"
       inkscape:label="Q" />
    <path
       style="fill:#313262;fill-opacity:1;stroke:none;stroke-width:0.2;stroke-linecap:round;stroke-opacity:1;enable-background:new"
       d="m 164.15208,353.70834 c 0,0 10e-6,15.87499 21.16667,15.87499 18.52084,0 18.52084,-13.22916 18.52084,-13.22916 v -52.91666 h -10.58334 v 50.27083 c 0,0 0,7.9375 -7.9375,7.9375 -10.58333,0 -10.58333,-7.9375 -10.58333,-7.9375 z"
       id="path23"
       sodipodi:nodetypes="csccccccc"
       inkscape:label="J" />
    <path
       style="fill:#313262;fill-opacity:1;stroke:none;stroke-width:0.2;stroke-linecap:round;stroke-opacity:1;enable-background:new"
       d="m 264.69376,369.58333 -21.16667,-66.14582 h 10.58335 l 15.87498,49.60938 15.875,-49.60938 h 10.58333 l -21.16666,66.14582 z"
       id="path24"
       sodipodi:nodetypes="cccccccc"
       inkscape:label="V" />
    <path
       id="path25"
       style="fill:#313262;fill-opacity:1;stroke:none;stroke-width:0.2;stroke-linecap:round;stroke-opacity:1;enable-background:new"
       d="m 243.52708,131.45833 v 66.14583 h 10.58333 l 1e-5,-26.45832 c 0,0 18.52084,21.16666 21.16667,23.81249 2.64583,2.64583 5.29166,2.64583 5.29166,2.64583 h 10.58334 c 0,0 -2.64584,0 -5.29167,-2.64583 -2.64583,-2.64583 -23.8125,-29.10416 -23.8125,-29.10416 0,0 13.22917,-1.32292 13.22917,-17.19792 0,-15.87499 -13.22917,-17.19792 -13.22917,-17.19792 z m 10.58333,7.9375 h 5.29167 c 0,0 5.29168,1.32293 5.29168,9.26042 0,7.9375 -5.29168,9.26042 -5.29168,9.26042 h -5.29166 z"
       sodipodi:nodetypes="ccccsccscccccccccc"
       inkscape:label="R" />
    <path
       id="path26"
       style="fill:#313262;fill-opacity:1;stroke:none;stroke-width:0.2;stroke-linecap:round;stroke-opacity:1;enable-background:new"
       d="m 243.52709,210.83334 v 66.14583 l 21.16667,10e-6 c 0,0 15.87499,0 15.87499,-34.39584 0,-31.75 -15.87499,-31.75 -15.87499,-31.75 z m 10.58333,7.9375 h 7.9375 c 0,0 7.9375,0 7.9375,23.8125 0,26.45834 -7.9375,26.45834 -7.9375,26.45834 h -7.9375 z"
       sodipodi:nodetypes="cccsccccsccc"
       inkscape:label="D" />
    <path
       style="fill:#313262;fill-opacity:1;stroke:none;stroke-width:0.2;stroke-linecap:round;stroke-opacity:1;enable-background:new"
       d="m 260.725,40.177086 c 1.32292,-1.322919 3.96876,-1.322919 3.96876,-1.322919 h 5.29166 V 105 h -10.58334 l 0,-60.854166 c 0,0 0,-2.645833 1.32292,-3.968748 z"
       id="path27"
       sodipodi:nodetypes="ccccccc"
       inkscape:label="1" />
    <path
       style="fill:#313262;fill-opacity:1;stroke:none;stroke-width:0.2;stroke-linecap:round;stroke-opacity:1;enable-background:new"
       d="m 309.67292,57.375003 c 2.64583,-3e-6 9.05298,-3e-6 9.05298,-3e-6 0,-6.712715 2.9514,-10.583332 6.82202,-10.583332 7.9375,0 7.6222,10.437096 5.29166,15.875001 C 322.90208,81.187501 307.02709,105 307.02709,105 h 34.39583 v -7.937497 h -21.16667 c 0,0 11.93834,-16.224655 13.22917,-18.520835 5.16334,-9.184715 7.9375,-13.229165 7.9375,-23.812501 0,-10.583333 -5.29167,-15.875 -15.875,-15.875 -7.9375,0 -15.875,7.937501 -15.875,18.520836 z"
       id="path29"
       sodipodi:nodetypes="ccssccccsssc"
       inkscape:label="2" />
    <path
       style="fill:#313262;fill-opacity:1;stroke:none;stroke-width:0.2;stroke-linecap:round;stroke-opacity:1;enable-background:new"
       d="m 330.83958,131.45834 c 10.58334,0 18.52084,6.58908 18.52084,15.875 0,10.58333 -5.38658,14.55208 -5.38658,14.55208 0,0 5.38658,6.61459 5.38658,14.55209 0,18.52083 -7.9375,21.16666 -18.52084,21.16666 -15.87499,0 -17.20909,-15.875 -17.20909,-15.875 h 9.27159 c 0,0 0,6.49409 7.9375,6.49409 5.29167,0 7.9375,-3.84825 7.9375,-11.78575 0,-7.9375 -7.9375,-10.58334 -7.9375,-10.58334 v -7.9375 c 0,0 7.9375,-2.64583 7.9375,-7.9375 0,-5.29166 -2.64583,-9.13992 -7.9375,-9.13992 -7.9375,0 -7.9375,6.49409 -7.9375,6.49409 h -9.16228 c 0,0 1.22479,-15.875 17.09978,-15.875 z"
       id="path30"
       sodipodi:nodetypes="csscccccccccczcc"
       inkscape:label="3" />
    <path
       id="path35"
       style="fill:#313262;fill-opacity:1;stroke:#5b4ffe;stroke-width:0.2;stroke-linecap:round;stroke-opacity:1;enable-background:new"
       d="m 336.13125,210.83333 -26.45833,47.62501 v 10.58334 h 26.45833 v 7.93748 h 10.58333 v -7.93748 h 2.64584 v -10.58334 h -2.64584 v -47.62501 z m 0,21.16668 v 26.45833 h -13.22917 z"
       sodipodi:nodetypes="cccccccccccccccc"
       inkscape:label="4" />
    <path
       style="fill:#313262;fill-opacity:1;stroke:#5b4ffe;stroke-width:0.2;stroke-linecap:round;stroke-opacity:1;enable-background:new"
       d="m 344.06875,303.43753 -34.39583,-10e-6 v 10.58332 23.8125 l 18.52083,3e-5 c 0,0 10.58333,-3e-5 10.58333,10.5833 C 338.77708,359 328.19375,359 328.19375,359 h -18.52083 v 10.58333 h 18.52083 c 0,0 21.16667,0 21.16667,-21.16666 0,-21.16667 -21.16667,-21.16667 -21.16667,-21.16667 h -7.9375 v -13.22916 h 23.8125 z"
       id="path36"
       sodipodi:nodetypes="ccccczcccczccccc"
       inkscape:label="5" />
    <path
       id="path37"
       style="fill:#313262;fill-opacity:1;stroke:#5b4ffe;stroke-width:0.2;stroke-linecap:round;stroke-opacity:1;enable-background:new"
       d="m 404.92291,38.854167 c 0,0 -23.8125,13.229167 -23.8125,42.333334 0,10.055713 5.29167,23.812509 18.52084,23.812499 13.22916,0 18.52083,-13.756783 18.52083,-23.812499 0,-13.229165 -7.9375,-23.812506 -15.875,-23.812501 -1.49807,0 -3.30169,0.765181 -3.30169,0.765181 0,0 0.65586,-3.411014 5.94752,-8.70268 5.29167,-5.291667 13.22917,-10.583334 13.22917,-10.583334 z m -5.29166,29.104169 c 5.29166,0 7.93749,7.937499 7.93749,13.229165 0,5.291669 -2.64583,13.229169 -7.93749,13.229169 -5.29167,0 -7.9375,-7.9375 -7.9375,-13.229169 0,-5.291666 2.64583,-13.229165 7.9375,-13.229165 z"
       sodipodi:nodetypes="cszsscscczszsz"
       inkscape:label="6" />
    <path
       style="fill:#313262;fill-opacity:1;stroke:#5b4ffe;stroke-width:0.2;stroke-linecap:round;stroke-opacity:1;enable-background:new"
       d="m 375.81875,131.45834 v 10.58333 h 29.10416 l -29.10416,55.5625 h 10.58333 l 34.39586,-66.14583 z"
       id="path38"
       inkscape:label="7" />
    <path
       id="path39"
       style="fill:#313262;fill-opacity:1;stroke:#5b4ffe;stroke-width:0.2;stroke-linecap:round;stroke-opacity:1;enable-background:new"
       d="m 396.98541,210.83335 c -7.58678,0 -15.875,5.64238 -15.875,13.22916 0,10.58333 7.9375,13.22917 7.9375,13.22917 0,0 -13.22916,5.29166 -13.22916,18.52083 0,10.62002 10.54664,21.16667 21.16666,21.16667 10.62002,0 21.16667,-10.54665 21.16667,-21.16667 0,-13.22917 -13.22917,-18.52083 -13.22917,-18.52083 0,0 7.9375,-2.64584 7.9375,-13.22917 0,-7.58678 -8.28822,-13.22916 -15.875,-13.22916 z m 0,5.29166 c 3.17991,0 5.29167,4.7576 5.29167,7.9375 0,3.17989 -2.11176,7.9375 -5.29167,7.9375 -3.17988,0 -5.29166,-4.7576 -5.29166,-7.9375 0,-3.1799 2.11178,-7.9375 5.29166,-7.9375 z m 0,26.45833 c 5.64721,0 10.58333,7.58197 10.58333,13.22917 0,5.6472 -4.93612,13.22917 -10.58333,13.22917 -5.64718,0 -10.58333,-7.58197 -10.58333,-13.22917 0,-5.6472 4.93615,-13.22917 10.58333,-13.22917 z"
       sodipodi:nodetypes="sscssscssssssssssss"
       inkscape:label="8" />
    <path
       id="path41"
       style="fill:#313262;fill-opacity:1;stroke:#5b4ffe;stroke-width:0.2;stroke-linecap:round;stroke-opacity:1;enable-background:new"
       d="m 404.92291,369.58333 c 0,0 13.22917,-13.22916 13.22917,-39.68749 0,-13.22917 -3.4338,-27.3425 -15.875,-26.45833 -8.79726,0.6252 -16.16213,12.3519 -15.875,21.16666 0.26472,8.12682 5.29167,18.52083 15.875,18.52083 h 5.29166 c 0,0 0,5.29167 -5.29166,13.22917 -5.29167,7.9375 -10.58333,13.22916 -10.58333,13.22916 z m -2.64583,-34.39583 c -3.94417,0 -5.29167,-6.63916 -5.29167,-10.58333 0,-3.94417 1.3475,-10.58333 5.29167,-10.58333 3.94417,0 5.29166,6.63916 5.29166,10.58333 0,3.94417 -1.34747,10.58333 -5.29166,10.58333 z"
       sodipodi:nodetypes="ccssscsccsssss"
       inkscape:label="9" />
    <path
       id="path42"
       style="fill:#313262;fill-opacity:1;stroke:none;stroke-width:0.2;stroke-linecap:round;stroke-opacity:1;enable-background:new"
       d="m 461.80835,38.854167 c -13.23653,-4e-6 -20.07754,21.161378 -19.84377,34.395832 0.22038,12.478429 7.3634,31.750011 19.84377,31.750001 12.48038,0 19.62336,-19.271575 19.84375,-31.749998 0.23376,-13.234449 -6.60724,-34.39583 -19.84375,-34.395835 z m 0,10.583333 c 8.51659,9e-6 9.43717,15.297751 9.26039,23.812502 -0.15985,7.699586 -1.55914,21.166659 -9.26039,21.166668 -7.70125,8e-6 -9.10059,-13.467076 -9.26044,-21.166671 -0.17679,-8.514757 0.74385,-23.812508 9.26044,-23.812499 z"
       sodipodi:nodetypes="ssssssssss"
       inkscape:label="0" />
  </g>
</svg>
